<!-- Generated by IcoMoon.io -->
<svg version="1.1" xmlns="http://www.w3.org/2000/svg" width="42" height="32" viewBox="0 0 42 32" fill="purple">
<title>top-movies-v2</title>
<path d="M0 16v16l10.224-0.007c6.011-0.007 9.872-0.037 9.38-0.073-1.395-0.103-3.134-0.484-4.411-0.976-0.565-0.22-2.077-0.954-2.349-1.138-0.073-0.051 2.429-0.081 8.037-0.081h8.147l-0.587 0.33c-1.776 0.991-4.235 1.717-6.312 1.864-0.55 0.037 2.987 0.066 9.38 0.073l10.253 0.007v-32h-41.761v16zM22.128 0.228c3.883 0.33 7.538 2.062 10.143 4.793 1.717 1.791 2.892 3.728 3.655 6.026 0.888 2.664 1.064 5.534 0.506 8.257-0.206 0.998-0.712 2.605-0.881 2.796-0.059 0.059-0.103 0.169-0.103 0.242 0 0.066-0.081 0.286-0.184 0.484l-0.184 0.367h-5.35l0.433-0.609c1.182-1.637 1.945-3.868 2.033-5.96 0.147-3.237-1.042-6.305-3.317-8.587-1.108-1.101-2.187-1.835-3.589-2.429-4.903-2.077-10.635-0.455-13.725 3.897-2.4 3.369-2.745 7.78-0.917 11.545 0.198 0.411 0.572 1.064 0.837 1.446l0.47 0.697h-5.321l-0.161-0.33c-0.088-0.183-0.161-0.382-0.161-0.448 0-0.059-0.081-0.25-0.176-0.418-0.382-0.661-0.888-2.584-1.072-4.051-0.132-1.050-0.117-3.171 0.029-4.11 0.404-2.561 1.204-4.609 2.62-6.716 3.134-4.668 8.807-7.376 14.415-6.892zM18.099 6.561c0.616 0.161 1.233 0.543 1.717 1.042 0.323 0.33 0.506 0.47 0.639 0.47 0.294 0 0.976 0.22 1.439 0.462 0.514 0.272 0.998 0.8 1.314 1.431 0.176 0.352 0.272 0.47 0.418 0.499 0.198 0.037 0.851 0.228 1.020 0.301 0.066 0.022 0.088-0.073 0.088-0.36 0-0.433 0.147-0.727 0.484-0.947 0.198-0.125 0.374-0.139 2.092-0.139 1.798 0 1.879 0.007 2.040 0.154 0.088 0.081 0.191 0.235 0.235 0.338 0.103 0.272 0.081 0.947-0.044 1.24-0.161 0.389-0.433 0.47-1.615 0.47h-0.991v1.835h1.123c1.042 0 1.138 0.015 1.292 0.154 0.235 0.22 0.301 0.448 0.301 1.079 0 0.653-0.147 1.028-0.455 1.174-0.161 0.073-0.206 0.154-0.242 0.477-0.029 0.308-0.624 6.848-0.624 6.928 0 0.015-0.161 0.022-0.367 0.022-0.242 0-0.367-0.029-0.367-0.088 0-0.161 0.587-6.694 0.624-6.98l0.037-0.272h-5.035l0.316 3.428c0.169 1.894 0.308 3.545 0.308 3.67l0.007 0.242h-2.84l0.69-4.037-0.338 0.25c-0.455 0.33-0.829 0.514-1.453 0.705l-0.521 0.154-0.044 0.455c-0.022 0.25-0.059 0.91-0.088 1.461l-0.044 1.013h-1.798l-0.044-0.646c-0.029-0.352-0.066-1.013-0.095-1.461l-0.051-0.829-0.301-0.081c-0.763-0.198-1.24-0.426-1.835-0.888l-0.213-0.161 0.044 0.183c0.073 0.294 0.639 3.64 0.639 3.765 0 0.103-0.147 0.117-1.24 0.117h-1.24l-0.147-0.499c-0.081-0.272-0.697-2.393-1.365-4.727l-1.211-4.228 0.073-0.47c0.147-0.954 0.807-1.857 1.637-2.253 0.191-0.088 0.55-0.367 0.8-0.624 0.418-0.426 0.47-0.514 0.543-0.917 0.25-1.328 1.372-2.554 2.672-2.899 0.506-0.139 1.534-0.147 2.018-0.015zM5.394 22.899l-0.587 0.587h32.073l-1.174-1.174h2.965c2.334 0 2.95 0.022 2.921 0.088-0.022 0.051-0.286 0.719-0.595 1.49l-0.558 1.395 0.58 1.431 0.587 1.431-2.349 0.022-2.341 0.015v1.174h-32.066l-0.022-0.572-0.022-0.565-2.327-0.022c-1.284-0.007-2.334-0.029-2.334-0.051s0.25-0.653 0.55-1.409c0.301-0.756 0.55-1.409 0.55-1.453s-0.25-0.697-0.55-1.453c-0.301-0.756-0.55-1.402-0.55-1.446 0-0.051 1.006-0.073 2.914-0.073h2.921l-0.587 0.587z"></path>
<path d="M21.189 1.879c-0.066 0.073 0.015 0.176 0.139 0.176 0.059 0 0.103-0.051 0.103-0.11 0-0.11-0.154-0.154-0.242-0.066z"></path>
<path d="M22.459 2.018c0 0.235 0.565 0.279 0.646 0.051 0.037-0.11-0.176-0.117-0.242-0.015-0.066 0.11-0.183 0.088-0.183-0.037 0-0.059-0.051-0.11-0.11-0.11s-0.11 0.051-0.11 0.11z"></path>
<path d="M19.398 2.261c-0.059 0.037-0.066 0.095-0.022 0.161 0.103 0.154 0.088 0.543-0.015 0.646-0.066 0.066-0.029 0.088 0.183 0.088 0.147 0 0.272-0.037 0.272-0.073 0-0.044-0.029-0.073-0.073-0.073-0.037 0-0.073-0.066-0.073-0.147 0-0.117 0.051-0.147 0.264-0.147 0.242 0 0.264 0.015 0.235 0.183-0.037 0.161-0.015 0.183 0.169 0.183 0.117 0 0.213-0.037 0.213-0.073 0-0.044-0.037-0.073-0.081-0.073-0.051 0-0.073-0.132-0.051-0.367 0.022-0.36 0.015-0.367-0.176-0.367-0.117 0-0.206 0.029-0.206 0.073 0 0.037 0.037 0.073 0.073 0.073 0.044 0 0.073 0.051 0.073 0.11 0 0.081-0.081 0.11-0.264 0.11-0.25 0-0.264-0.015-0.22-0.183 0.037-0.147 0.022-0.183-0.081-0.183-0.073 0-0.169 0.029-0.22 0.059z"></path>
<path d="M21.123 2.29c0.11 0.11 0.117 0.543 0.015 0.609-0.147 0.088-0.066 0.183 0.154 0.183 0.176 0 0.22-0.022 0.183-0.117-0.022-0.066-0.044-0.264-0.044-0.44 0-0.301-0.015-0.323-0.198-0.323-0.154 0-0.176 0.022-0.11 0.088z"></path>
<path d="M22.121 2.29c-0.022 0.029 0 0.059 0.044 0.059 0.088 0 0.015 0.609-0.088 0.646-0.147 0.059-0.044 0.161 0.169 0.161 0.125 0 0.206-0.029 0.176-0.073-0.037-0.066 0.367-0.367 0.492-0.367 0.059 0-0.015 0.301-0.11 0.418-0.051 0.066-0.037 0.095 0.044 0.095 0.059 0 0.154 0.015 0.213 0.037 0.073 0.029 0.095-0.059 0.11-0.345 0-0.213 0.044-0.396 0.088-0.411 0.169-0.059 0.073-0.161-0.147-0.161-0.161 0-0.22 0.029-0.191 0.103 0.022 0.059-0.059 0.147-0.22 0.22-0.147 0.066-0.272 0.11-0.286 0.095-0.044-0.044 0.059-0.345 0.125-0.345 0.037 0 0.066-0.029 0.066-0.066 0-0.088-0.433-0.147-0.484-0.066z"></path>
<path d="M18.407 2.4c-0.139 0.037-0.176 0.139-0.066 0.183 0.029 0.007 0.081 0.147 0.11 0.294 0.044 0.25 0.037 0.279-0.139 0.323-0.25 0.059-0.279 0.022-0.286-0.374-0.007-0.323-0.015-0.338-0.191-0.294-0.228 0.059-0.272 0.103-0.169 0.169 0.044 0.029 0.103 0.176 0.132 0.323 0.051 0.25 0.037 0.279-0.139 0.323-0.257 0.059-0.272 0.037-0.286-0.374-0.015-0.323-0.022-0.338-0.198-0.294-0.242 0.066-0.272 0.103-0.147 0.183 0.066 0.044 0.11 0.191 0.11 0.396 0 0.183 0.037 0.338 0.073 0.338 0.161-0.007 1.585-0.352 1.629-0.396 0.029-0.029 0.015-0.073-0.029-0.103-0.103-0.066-0.25-0.602-0.161-0.602 0.037 0 0.066-0.037 0.066-0.073 0-0.073-0.088-0.081-0.308-0.022z"></path>
<path d="M24.881 2.628c0 0.044 0.029 0.088 0.073 0.103 0.103 0.029-0.154 0.793-0.272 0.793-0.191 0-0.088 0.125 0.161 0.205 0.242 0.073 0.257 0.066 0.22-0.066-0.066-0.205 0.022-0.433 0.147-0.382 0.059 0.022 0.139 0.161 0.183 0.323 0.044 0.154 0.147 0.33 0.235 0.389 0.191 0.132 0.323 0.081 0.176-0.073-0.059-0.051-0.147-0.22-0.191-0.367-0.073-0.22-0.073-0.286 0.022-0.374 0.088-0.088 0.132-0.095 0.257-0.015 0.176 0.11 0.272 0.051 0.206-0.117-0.073-0.191-0.264-0.213-0.484-0.044-0.117 0.081-0.264 0.154-0.33 0.154-0.161 0-0.132-0.228 0.037-0.272 0.198-0.051 0.183-0.147-0.029-0.198-0.095-0.022-0.228-0.066-0.294-0.088s-0.117-0.015-0.117 0.029z"></path>
<path d="M15.714 3.163c-0.169 0.073-0.294 0.169-0.264 0.213 0.029 0.051 0.103 0.037 0.206-0.037 0.176-0.125 0.418-0.147 0.418-0.044 0 0.037-0.059 0.088-0.132 0.11-0.081 0.029-0.213 0.125-0.301 0.22-0.139 0.147-0.154 0.205-0.088 0.33 0.11 0.198 0.374 0.198 0.624 0 0.103-0.081 0.213-0.132 0.25-0.11 0.029 0.015 0.103 0 0.161-0.037 0.088-0.059 0.088-0.088 0.015-0.117-0.051-0.022-0.139-0.147-0.191-0.279-0.154-0.36-0.316-0.418-0.697-0.25zM16.25 3.633c0.051 0.139-0.257 0.301-0.448 0.228-0.125-0.051-0.117-0.066 0.044-0.198 0.206-0.169 0.345-0.176 0.404-0.029z"></path>
<path d="M26.877 3.317c0.022 0.051 0.095 0.11 0.161 0.117 0.088 0.022 0.125-0.007 0.103-0.073-0.022-0.051-0.095-0.11-0.161-0.117-0.088-0.022-0.125 0.007-0.103 0.073z"></path>
<path d="M26.679 3.589c0.044 0.081-0.183 0.595-0.272 0.595-0.11 0-0.059 0.139 0.073 0.176 0.176 0.059 0.272 0.022 0.25-0.081-0.007-0.051 0.044-0.22 0.125-0.374 0.081-0.161 0.125-0.308 0.103-0.338-0.073-0.073-0.33-0.051-0.279 0.022z"></path>
<path d="M14.503 3.721c-0.198 0.103-0.206 0.132-0.161 0.433 0.044 0.352 0.044 0.352-0.345 0.081-0.191-0.132-0.213-0.132-0.382-0.022s-0.272 0.33-0.11 0.228c0.081-0.051 0.36 0.477 0.316 0.609-0.029 0.073 0.007 0.073 0.154 0.007 0.206-0.095 0.257-0.213 0.095-0.213-0.095 0-0.308-0.352-0.25-0.411 0.015-0.015 0.147 0.059 0.294 0.154 0.147 0.103 0.301 0.183 0.338 0.183 0.051 0 0.081-0.176 0.081-0.426v-0.418l0.147 0.235c0.081 0.132 0.125 0.294 0.095 0.36-0.037 0.103-0.015 0.103 0.206-0.015 0.176-0.095 0.213-0.139 0.132-0.154-0.103-0.022-0.294-0.36-0.374-0.661-0.015-0.059-0.081-0.051-0.235 0.029z"></path>
<path d="M27.611 4.051c0.029 0.147-0.25 0.572-0.382 0.572-0.081 0.007-0.066 0.044 0.066 0.147 0.191 0.169 0.316 0.191 0.264 0.051-0.022-0.044-0.007-0.132 0.029-0.191 0.051-0.081 0.103-0.073 0.286 0.037 0.183 0.103 0.213 0.154 0.154 0.264-0.044 0.073-0.103 0.117-0.147 0.095-0.037-0.029-0.066-0.015-0.066 0.029 0 0.081 0.235 0.228 0.367 0.228 0.044 0 0.059-0.029 0.037-0.073-0.059-0.088 0.154-0.492 0.301-0.572 0.103-0.059 0.103-0.081-0.051-0.191-0.169-0.117-0.176-0.117-0.198 0.029-0.029 0.184-0.169 0.191-0.389 0.007l-0.176-0.147 0.352-0.132-0.176-0.117c-0.206-0.147-0.301-0.161-0.272-0.037z"></path>
<path d="M12.404 5.035c-0.191 0.161-0.228 0.242-0.206 0.462 0.029 0.36 0.301 0.521 0.639 0.374 0.213-0.088 0.448-0.389 0.448-0.587 0-0.132-0.352-0.44-0.506-0.44-0.081 0-0.25 0.088-0.374 0.191zM12.998 5.218c0.191 0.367-0.22 0.668-0.536 0.382-0.161-0.147-0.169-0.228-0.007-0.404 0.161-0.183 0.44-0.169 0.543 0.022z"></path>
<path d="M29.064 5.116c-0.36 0.125-0.389 0.587-0.066 0.866 0.286 0.235 0.55 0.22 0.749-0.051 0.191-0.257 0.117-0.536-0.191-0.719-0.242-0.154-0.301-0.161-0.492-0.095zM29.563 5.372c0.051 0.051 0.088 0.154 0.088 0.242 0 0.338-0.418 0.455-0.616 0.176-0.228-0.33 0.242-0.705 0.528-0.418z"></path>
<path d="M10.95 6.040c-0.418 0.426-0.455 0.492-0.242 0.492 0.169 0 0.477 0.47 0.418 0.631-0.029 0.073 0.022 0.169 0.117 0.25 0.191 0.154 0.33 0.117 0.198-0.044-0.139-0.169 0.477-0.778 0.719-0.719 0.095 0.029 0.169 0.015 0.169-0.022 0-0.11-0.279-0.338-0.352-0.286-0.066 0.037-0.595-0.462-0.595-0.565 0.007-0.147-0.073-0.095-0.433 0.264zM11.567 6.804c-0.147 0.147-0.22 0.176-0.242 0.11-0.022-0.051-0.117-0.191-0.213-0.301-0.213-0.25-0.213-0.286-0.051-0.462 0.117-0.132 0.132-0.132 0.418 0.161l0.301 0.294-0.213 0.198z"></path>
<path d="M30.363 6.15c-0.161 0.184-0.154 0.257 0.007 0.169 0.095-0.051 0.169-0.044 0.22 0.007 0.066 0.066 0.037 0.139-0.11 0.294-0.11 0.11-0.242 0.205-0.294 0.205-0.132 0-0.117 0.103 0.037 0.242 0.161 0.147 0.242 0.161 0.198 0.029-0.044-0.11 0.455-0.521 0.514-0.418 0.022 0.044 0.022 0.139 0 0.22-0.051 0.169 0.051 0.191 0.183 0.037 0.073-0.088 0.022-0.176-0.264-0.514-0.191-0.22-0.36-0.404-0.36-0.404-0.007 0-0.066 0.059-0.132 0.132z"></path>
<path d="M31.237 7.567c-0.11 0.088-0.191 0.22-0.191 0.33 0 0.198 0.396 0.683 0.492 0.595 0.029-0.037 0.007-0.103-0.059-0.147-0.183-0.139-0.286-0.374-0.206-0.499 0.059-0.088 0.081-0.088 0.139 0.007 0.037 0.059 0.147 0.22 0.242 0.352 0.169 0.22 0.191 0.235 0.301 0.125 0.228-0.235 0.132-0.646-0.183-0.807-0.264-0.139-0.301-0.139-0.536 0.044zM31.875 7.787c0.044 0.066 0.051 0.183 0.022 0.257-0.051 0.125-0.073 0.117-0.235-0.081-0.095-0.125-0.176-0.25-0.176-0.279 0-0.103 0.308-0.022 0.389 0.103z"></path>
<path d="M9.483 8.073c-0.103 0.161-0.117 0.323-0.029 0.264 0.037-0.022 0.184 0.037 0.338 0.132l0.272 0.161-0.139 0.176c-0.139 0.169-0.139 0.169-0.367 0.029-0.132-0.073-0.235-0.176-0.235-0.228 0-0.132-0.073-0.117-0.191 0.029-0.117 0.154-0.132 0.345-0.029 0.279 0.11-0.066 0.595 0.25 0.543 0.352-0.147 0.257-0.191 0.279-0.389 0.154-0.103-0.066-0.235-0.169-0.279-0.235-0.088-0.103-0.103-0.103-0.206 0.029-0.132 0.176-0.139 0.25-0.007 0.25 0.161 0 0.558 0.25 0.558 0.345 0 0.206 0.132 0.059 0.55-0.609 0.528-0.844 0.521-0.829 0.352-0.822-0.176 0.015-0.536-0.228-0.536-0.352 0-0.147-0.095-0.125-0.206 0.044z"></path>
<path d="M32.514 8.778c0 0.022 0.066 0.125 0.147 0.228 0.139 0.176 0.198 0.389 0.11 0.389-0.022 0-0.147-0.117-0.272-0.264-0.294-0.33-0.528-0.323-0.558 0.022-0.015 0.169 0.022 0.286 0.147 0.418 0.095 0.095 0.176 0.22 0.191 0.272 0.037 0.169 0.161 0.257 0.161 0.117 0-0.066 0.095-0.169 0.22-0.235 0.286-0.147 0.367-0.308 0.279-0.543-0.11-0.294-0.426-0.587-0.426-0.404zM32.44 9.299c0.117 0.147 0.132 0.206 0.059 0.257-0.051 0.029-0.117 0.059-0.147 0.059-0.095 0-0.294-0.36-0.242-0.44 0.073-0.117 0.161-0.088 0.33 0.125z"></path>
<path d="M33.248 10.224c-0.176 0.073-0.176 0.081-0.022 0.103 0.279 0.051 0.257 0.228-0.044 0.382-0.213 0.11-0.301 0.125-0.367 0.059-0.103-0.103-0.103-0.059 0.007 0.242 0.066 0.198 0.095 0.22 0.161 0.132 0.044-0.059 0.191-0.169 0.323-0.235 0.213-0.11 0.242-0.11 0.279-0.007 0.029 0.059 0.007 0.161-0.044 0.22-0.125 0.154-0.044 0.213 0.147 0.11 0.169-0.088 0.161-0.147-0.095-0.734-0.154-0.33-0.169-0.345-0.345-0.272z"></path>
<path d="M8.147 10.437c-0.154 0.25-0.191 0.499-0.081 0.499 0.029 0 0.088-0.11 0.125-0.235 0.044-0.132 0.125-0.25 0.198-0.264 0.103-0.022 0.11 0.007 0.044 0.198-0.044 0.117-0.066 0.308-0.051 0.426 0.044 0.426 0.528 0.235 0.617-0.242 0.022-0.139 0.073-0.272 0.11-0.294 0.103-0.059 0.081-0.191-0.022-0.154-0.051 0.015-0.198-0.015-0.33-0.073-0.352-0.139-0.448-0.117-0.609 0.139zM8.881 10.65c0 0.161-0.154 0.433-0.257 0.433-0.117 0-0.139-0.147-0.066-0.411 0.029-0.11 0.081-0.147 0.184-0.125 0.073 0.022 0.139 0.066 0.139 0.103z"></path>
<path d="M7.464 11.802c-0.139 0.154-0.323 0.866-0.242 0.947 0.029 0.029 0.073 0.022 0.103-0.022 0.073-0.11 0.749 0.095 0.749 0.235 0 0.338 0.286-0.139 0.396-0.683 0.088-0.396-0.206-0.697-0.44-0.462-0.059 0.059-0.11 0.044-0.176-0.037-0.117-0.147-0.242-0.139-0.389 0.022zM7.743 12.257c-0.037 0.161-0.088 0.22-0.169 0.206-0.147-0.029-0.147-0.418 0-0.506 0.147-0.095 0.228 0.044 0.169 0.301zM8.279 12.139c0.015 0.073 0.007 0.213-0.015 0.308-0.037 0.139-0.088 0.184-0.213 0.161-0.125-0.015-0.161-0.066-0.147-0.228 0.029-0.367 0.316-0.558 0.374-0.242z"></path>
<path d="M33.938 11.765c-0.081 0.139-0.859 0.382-0.895 0.272-0.044-0.117-0.161-0.007-0.125 0.11 0.117 0.374 0.11 0.36 0.22 0.213 0.095-0.139 0.103-0.139 0.147 0.007 0.169 0.543 0.47 0.741 0.8 0.521 0.22-0.139 0.257-0.499 0.081-0.749-0.059-0.088-0.088-0.176-0.066-0.198s0.015-0.095-0.029-0.169c-0.059-0.11-0.073-0.11-0.132-0.007zM34.040 12.198c0.264 0.264-0.081 0.683-0.418 0.506-0.22-0.125-0.213-0.499 0.015-0.543 0.286-0.059 0.316-0.051 0.404 0.037z"></path>
<path d="M16.558 7.193c-1.299 0.228-2.305 1.328-2.488 2.708-0.066 0.536-0.095 0.595-0.264 0.653-0.25 0.088-0.595 0.44-0.683 0.69-0.059 0.154-0.154 0.22-0.455 0.308-0.587 0.169-1.24 0.771-1.395 1.27l-0.051 0.169h13.519l-0.044-1.35-0.418-0.213c-0.301-0.154-0.558-0.228-0.932-0.257l-0.506-0.037-0.051-0.257c-0.206-1.094-1.262-1.989-2.422-2.055l-0.514-0.037-0.301-0.411c-0.639-0.888-1.879-1.38-2.994-1.182z"></path>
<path d="M25.607 10.121c-0.176 0.139-0.176 0.161-0.198 1.688l-0.022 1.549h0.815l0.015-1.27 0.022-1.262 1.27-0.022 1.27-0.015 0.066-0.191c0.103-0.257 0.022-0.521-0.169-0.572-0.088-0.022-0.778-0.044-1.527-0.044-1.24 0-1.387 0.015-1.541 0.139z"></path>
<path d="M14.216 15.134c0.338 2.070 0.264 1.894 0.646 1.468 0.411-0.455 0.91-0.778 1.512-0.983 0.257-0.081 0.499-0.176 0.528-0.206s0.037-0.433 0.007-0.903l-0.051-0.859h-2.892l0.25 1.483z"></path>
<path d="M19.714 14.033c-0.022 0.213-0.044 0.624-0.044 0.91v0.528l0.242 0.044c0.338 0.066 1.218 0.492 1.512 0.749 0.139 0.11 0.338 0.33 0.448 0.484l0.198 0.272 0.088-0.609 0.095-0.609-0.198-0.198c-0.191-0.191-0.198-0.206-0.169-1.072l0.022-0.881h-2.143l-0.051 0.382z"></path>
<path d="M22.738 14.099c-0.183 0.103-0.191 0.91-0.015 0.976 0.066 0.022 1.446 0.044 3.075 0.044 2.958 0 2.965 0 3.053-0.154 0.081-0.161 0.051-0.763-0.044-0.859-0.081-0.088-5.93-0.095-6.070-0.007z"></path>
<path d="M17.505 16.081c-0.998 0.147-1.923 0.616-2.246 1.138-0.69 1.116 0.646 2.253 2.767 2.356 0.624 0.029 0.954 0.015 1.395-0.088 1.211-0.272 2.033-0.859 2.084-1.505 0.044-0.499 0-0.595-0.418-1.020-0.345-0.338-0.528-0.455-0.976-0.616-0.873-0.316-1.688-0.396-2.605-0.264z"></path>
<path d="M9.35 25.248c-0.448 0.228-0.653 0.639-0.653 1.284 0.007 0.418 0.044 0.58 0.176 0.8 0.338 0.536 1.182 0.712 1.769 0.36 0.683-0.404 0.675-1.894-0.007-2.385-0.294-0.22-0.917-0.25-1.284-0.059zM10.385 25.791c0.338 0.338 0.308 1.218-0.059 1.475-0.088 0.059-0.294 0.11-0.462 0.11-0.433 0-0.565-0.176-0.602-0.8-0.029-0.448-0.015-0.514 0.169-0.727 0.257-0.301 0.683-0.33 0.954-0.059z"></path>
<path d="M22.532 25.262c-0.426 0.22-0.602 0.528-0.639 1.145-0.029 0.411-0.007 0.543 0.139 0.822 0.235 0.462 0.675 0.683 1.226 0.631 0.727-0.066 1.072-0.499 1.072-1.328-0.007-0.683-0.213-1.094-0.646-1.292-0.411-0.183-0.756-0.176-1.152 0.022zM23.45 25.659c0.433 0.169 0.433 1.505 0 1.673-0.272 0.103-0.668 0.044-0.829-0.125-0.316-0.33-0.272-1.24 0.081-1.483 0.161-0.11 0.536-0.147 0.749-0.066z"></path>
<path d="M34.789 25.182c-0.345 0.139-0.514 0.367-0.514 0.668 0 0.514 0.191 0.69 0.939 0.866 0.374 0.088 0.602 0.228 0.602 0.374 0 0.161-0.308 0.36-0.55 0.36-0.25 0-0.55-0.198-0.55-0.367 0-0.044-0.117-0.073-0.257-0.073-0.294 0-0.323 0.095-0.147 0.44 0.22 0.433 1.189 0.572 1.644 0.242 0.294-0.22 0.404-0.47 0.345-0.778-0.059-0.33-0.25-0.47-0.91-0.646-0.543-0.154-0.712-0.301-0.595-0.514 0.051-0.103 0.154-0.139 0.396-0.139 0.264 0 0.352 0.037 0.448 0.183 0.088 0.139 0.184 0.183 0.367 0.183 0.139 0 0.25-0.015 0.25-0.037 0-0.161-0.235-0.543-0.396-0.646-0.242-0.161-0.822-0.228-1.072-0.117z"></path>
<path d="M5.431 25.431v0.257h0.734v2.128h0.587v-2.128h0.734v-0.514h-2.055v0.257z"></path>
<path d="M12.55 26.488v1.328h0.514v-0.954h0.389c0.536 0 0.873-0.183 0.991-0.543 0.11-0.345 0.029-0.675-0.242-0.925-0.154-0.147-0.279-0.176-0.917-0.206l-0.734-0.037v1.336zM13.93 25.776c0.051 0.051 0.088 0.161 0.088 0.25 0 0.272-0.191 0.396-0.595 0.396h-0.36v-0.734h0.389c0.213 0 0.426 0.037 0.477 0.088z"></path>
<path d="M18.033 25.226c-0.029 0.022-0.051 0.616-0.051 1.321v1.27h0.506l0.022-0.829 0.022-0.822 0.44 1.615 0.272 0.022c0.301 0.022 0.257 0.103 0.55-1.020l0.132-0.528 0.073 1.527 0.242 0.022 0.235 0.022v-2.657l-0.763 0.044-0.228 0.917-0.235 0.917-0.081-0.294c-0.044-0.161-0.117-0.462-0.161-0.661-0.206-0.954-0.183-0.917-0.58-0.917-0.191 0-0.374 0.022-0.396 0.051z"></path>
<path d="M25.497 25.299c0.022 0.073 0.22 0.661 0.433 1.306l0.396 1.174 0.257 0.022 0.264 0.022 0.411-1.233c0.228-0.675 0.411-1.277 0.411-1.328s-0.103-0.088-0.25-0.088h-0.25l-0.235 0.749c-0.352 1.174-0.308 1.16-0.631 0.169l-0.286-0.881-0.279-0.022c-0.25-0.022-0.279-0.007-0.242 0.11z"></path>
<path d="M29.064 26.495v1.321h0.514v-2.642h-0.514v1.321z"></path>
<path d="M31.024 25.226c-0.029 0.022-0.051 0.616-0.051 1.321v1.27h1.989l-0.022-0.242-0.022-0.235-1.439-0.044 0.044-0.616 1.284-0.044v-0.433h-1.321v-0.514h1.394v-0.514h-0.903c-0.499 0-0.932 0.022-0.954 0.051z"></path>
</svg>
